# xmcd CD database file
#
# Track frame offsets:
#	150
#	11276
#	25282
#	39119
#	53217
#	72375
#
# Disc length: 1276 seconds
#
# Revision: 0
# Processed by: cddbd v1.5.2PL0 Copyright (c) Steve Scherf et al.
# Submitted via: CDex 1.70beta2
#
DISCID=4104fa06
DTITLE=Compilation - Jazz magazine - A night in Tunisia
DYEAR=1900
DGENRE=Jazz
TTITLE0=Sarah Vaughan - A night in Tunisia
TTITLE1=Dizzy Gillespie and his orchestra - A night in Tunisia
TTITLE2=Charlie Parker quintet - A night in Tunisia
TTITLE3=Lennie Tristano trio - Interlude (A night in Tunisia)
TTITLE4=Bud Powell trio - A night in Tunisia
TTITLE5=Charlie Parker and Dizzy Gillespie - A night in Tunisia
EXTD=
EXTT0=
EXTT1=
EXTT2=
EXTT3=
EXTT4=
EXTT5=
PLAYORDER=
